HIERARCHY
ROOT Hips
{
    OFFSET 0.000000 0.000000 0.000000
    CHANNELS 6 Xposition Yposition Zposition Zrotation Xrotation Yrotation
    JOINT Spine
    {
        OFFSET -0.000000 7.246840 0.000000
        CHANNELS 3 Zrotation Xrotation Yrotation
        JOINT Spine1
        {
            OFFSET -0.000000 20.289354 0.000000
            CHANNELS 3 Zrotation Xrotation Yrotation
            JOINT Neck
            {
                OFFSET -0.000000 20.206032 1.836912
                CHANNELS 3 Zrotation Xrotation Yrotation
                JOINT Head
                {
                    OFFSET -0.000000 12.372654 -1.767522
                    CHANNELS 3 Zrotation Xrotation Yrotation
                    End Site
                    {
                        OFFSET -0.000000 22.094025 0.000000
                    }
                }
            }
            JOINT LeftShoulder
            {
                OFFSET 3.465871 17.201674 -0.568930
                CHANNELS 3 Zrotation Xrotation Yrotation
                JOINT LeftArm
                {
                    OFFSET 14.070313 0.000000 0.000000
                    CHANNELS 3 Zrotation Xrotation Yrotation
                    JOINT LeftForeArm
                    {
                        OFFSET 26.549477 0.000000 0.000000
                        CHANNELS 3 Zrotation Xrotation Yrotation
                        JOINT LeftHand
                        {
                            OFFSET 18.880413 0.000000 0.000000
                            CHANNELS 3 Zrotation Xrotation Yrotation
                            End Site
                            {
                                OFFSET 13.256415 0.000000 0.000000
                            }
                        }
                    }
                }
            }
            JOINT RightShoulder
            {
                OFFSET -3.526370 17.201674 -0.568930
                CHANNELS 3 Zrotation Xrotation Yrotation
                JOINT RightArm
                {
                    OFFSET -14.070313 0.000000 0.000000
                    CHANNELS 3 Zrotation Xrotation Yrotation
                    JOINT RightForeArm
                    {
                        OFFSET -26.549477 0.000000 0.000000
                        CHANNELS 3 Zrotation Xrotation Yrotation
                        JOINT RightHand
                        {
                            OFFSET -18.880413 0.000000 0.000000
                            CHANNELS 3 Zrotation Xrotation Yrotation
                            End Site
                            {
                                OFFSET -13.256415 0.000000 0.000000
                            }
                        }
                    }
                }
            }
        }
    }
    JOINT LeftUpLeg
    {
        OFFSET 8.837609 0.000000 0.000000
        CHANNELS 3 Zrotation Xrotation Yrotation
        JOINT LeftLeg
        {
            OFFSET -0.000000 -41.345005 0.000000
            CHANNELS 3 Zrotation Xrotation Yrotation
            JOINT LeftFoot
            {
                OFFSET -0.000000 -35.500874 0.000000
                CHANNELS 3 Zrotation Xrotation Yrotation
                JOINT LeftToeBase
                {
                    OFFSET -0.000000 -5.744446 13.256415
                    CHANNELS 3 Zrotation Xrotation Yrotation
                    End Site
                    {
                        OFFSET -0.000000 0.000000 3.535044
                    }
                }
            }
        }
    }
    JOINT RightUpLeg
    {
        OFFSET -8.837609 0.000000 0.000000
        CHANNELS 3 Zrotation Xrotation Yrotation
        JOINT RightLeg
        {
            OFFSET -0.000000 -41.345005 0.000000
            CHANNELS 3 Zrotation Xrotation Yrotation
            JOINT RightFoot
            {
                OFFSET -0.000000 -35.500874 0.000000
                CHANNELS 3 Zrotation Xrotation Yrotation
                JOINT RightToeBase
                {
                    OFFSET -0.000000 -5.744446 13.256415
                    CHANNELS 3 Zrotation Xrotation Yrotation
                    End Site
                    {
                        OFFSET -0.000000 0.000000 3.535044
                    }
                }
            }
        }
    }
}
MOTION
Frames:    14
Frame Time:    0.010000
5.488491    82.309311    -73.448410    4.026417    3.932024    -3.223537    -3.930200    -14.124169    -0.098918    1.089580    2.766773    0.361856    -0.345489    32.014633    -1.817952    4.193589    -16.783249    -0.751833    18.087868    0.881078    6.495323    -33.564011    9.672769    -10.282412    7.623155    -7.650568    -12.666655    -39.218147    -7.802675    2.808679    -15.725098    -0.760515    12.702022    19.047548    3.560839    9.430113    -3.029258    -5.002590    2.899118    6.733976    -4.376184    9.359166    -3.937356    5.358088    1.533068    -1.903889    -7.996383    -1.772622    5.202165    0.432268    -2.113689    -1.006796    -2.341061    1.429736    -9.264764    2.113936    4.823382    8.417759    -11.058369    4.925836    -2.442131    0.338243    -6.917777    1.079654    2.965286    -1.876882    
5.489084    82.309059    -73.452866    4.027571    3.929607    -3.224410    -3.939024    -14.113235    -0.096870    1.106622    2.759306    0.364355    -0.365111    32.009960    -1.805021    4.210440    -16.802349    -0.735979    18.080660    0.883836    6.494186    -33.568913    9.629179    -10.284592    7.611774    -7.643368    -12.678837    -39.153374    -7.792872    2.805083    -15.730184    -0.758073    12.708415    19.037827    3.580414    9.435718    -3.034161    -5.008130    2.884804    6.731656    -4.382075    9.360699    -3.929208    5.353734    1.488394    -1.923169    -7.982929    -1.744381    5.232398    0.400981    -2.079877    -0.993098    -2.260219    1.409571    -9.266249    2.114460    4.818933    8.422464    -11.063271    4.893073    -2.446146    0.346746    -6.889440    1.069367    2.950208    -1.859286    
5.490129    82.310188    -73.459625    4.033974    3.928348    -3.221210    -3.955517    -14.098439    -0.098643    1.116745    2.743735    0.364123    -0.376759    31.995535    -1.799954    4.235158    -16.793159    -0.725701    18.074253    0.895365    6.490728    -33.553219    9.623797    -10.287189    7.611017    -7.645632    -12.698762    -39.153091    -7.794720    2.807484    -15.718511    -0.771236    12.717801    19.029425    3.593924    9.425708    -3.042006    -5.001090    2.880136    6.757792    -4.371784    9.378104    -3.943124    5.353904    1.521051    -1.917209    -7.990036    -1.756753    5.250920    0.420146    -2.084804    -0.974554    -2.264134    1.383286    -9.276116    2.107083    4.830905    8.424565    -11.052279    4.903299    -2.452354    0.332650    -6.923721    1.038566    3.003952    -1.804754    
5.490685    82.311180    -73.462967    4.027830    3.926394    -3.223019    -3.953878    -14.089260    -0.096370    1.122271    2.733902    0.365758    -0.366050    31.996937    -1.804086    4.227173    -16.812866    -0.729922    18.080843    0.896403    6.494352    -33.547623    9.669449    -10.293933    7.639818    -7.647896    -12.698475    -39.208622    -7.796072    2.809587    -15.725698    -0.774728    12.734713    19.040678    3.589207    9.406531    -3.040145    -5.010140    2.904012    6.758323    -4.381546    9.355737    -3.942356    5.356531    1.536798    -1.892795    -8.004822    -1.773653    5.191012    0.437434    -2.129407    -0.996777    -2.306447    1.415201    -9.271634    2.105967    4.838694    8.423245    -11.053458    4.890572    -2.441620    0.342828    -6.912364    1.056041    3.004900    -1.835099    
5.493407    82.311073    -73.466888    4.029976    3.923724    -3.225276    -3.952852    -14.078871    -0.089327    1.120329    2.726616    0.372296    -0.397918    31.986668    -1.792832    4.286802    -16.822262    -0.705842    18.088612    0.879950    6.485826    -33.546638    9.671017    -10.271673    7.638176    -7.651818    -12.736044    -39.221169    -7.798640    2.811403    -15.721607    -0.767841    12.721673    19.036512    3.558230    9.424067    -3.037833    -5.007220    2.910235    6.772288    -4.377464    9.354042    -3.938232    5.352049    1.504846    -1.933029    -7.980095    -1.664913    5.291550    0.382905    -2.140951    -0.977275    -2.185847    1.386470    -9.281690    2.105354    4.846185    8.443688    -11.054611    4.883991    -2.448590    0.358815    -6.929828    1.045387    2.960465    -1.817408    
5.496070    82.312218    -73.472343    4.032486    3.926513    -3.226552    -3.955710    -14.072572    -0.087622    1.121721    2.716808    0.374272    -0.365875    31.967104    -1.793128    4.242799    -16.815960    -0.713819    18.071234    0.909993    6.486386    -33.500618    9.697983    -10.288758    7.621975    -7.699578    -12.760330    -39.210739    -7.840395    2.794726    -15.728735    -0.768899    12.732091    19.046560    3.538964    9.416896    -3.046418    -5.025718    2.923798    6.808564    -4.392133    9.358810    -3.944424    5.344187    1.530448    -1.896949    -7.999146    -1.843825    5.243716    0.438401    -2.077395    -1.006656    -2.324278    1.429386    -9.287157    2.096029    4.849709    8.437226    -11.051018    4.905351    -2.431229    0.366492    -6.943859    1.035508    2.943059    -1.800554    
5.497930    82.310959    -73.476768    4.036239    3.924616    -3.233510    -3.957159    -14.057386    -0.081091    1.116144    2.698687    0.380863    -0.336779    31.948700    -1.800380    4.213506    -16.805048    -0.725514    18.087683    0.897378    6.482029    -33.491364    9.768046    -10.272168    7.632004    -7.737929    -12.766589    -39.236500    -7.863609    2.754226    -15.718613    -0.766653    12.730371    18.496944    6.212154    8.990574    -2.781617    -6.418242    3.923683    6.594088    -5.812540    8.902024    -3.964721    5.347491    1.570637    -1.901104    -7.999476    -1.695782    5.223176    0.434020    -2.172991    -0.969378    -2.302274    1.376267    -9.291942    2.091582    4.843051    8.437403    -11.048683    4.890548    -2.153394    2.205789    -8.175433    0.653772    0.536983    -1.165664    
5.499036    82.311882    -73.481262    4.036959    3.927775    -3.232373    -3.973012    -14.056561    -0.080985    1.142757    2.697593    0.382094    -0.408374    31.927017    -1.787197    4.314065    -16.794050    -0.694591    18.083479    0.879849    6.487127    -33.485043    9.852339    -10.274977    7.647819    -7.790442    -12.764604    -39.203278    -7.898627    2.711876    -15.740641    -0.771649    12.730770    18.505013    6.242444    8.998072    -2.791740    -6.450876    3.911756    6.600329    -5.843330    8.925359    -3.951450    5.339546    1.526354    -1.908864    -7.997728    -1.766018    5.201638    0.446313    -2.104268    -1.000357    -2.304597    1.420267    -9.289975    2.089920    4.830587    8.434521    -11.056985    4.884837    -2.150731    2.193344    -8.170716    0.646343    0.555696    -1.152190    
5.502524    82.312531    -73.485741    4.036156    3.925574    -3.234569    -3.974643    -14.045023    -0.077206    1.151074    2.686170    0.385748    -0.437759    31.899635    -1.786472    4.356187    -16.763906    -0.687388    18.070036    0.899984    6.497520    -33.461117    9.846826    -10.301832    7.635904    -7.782313    -12.783251    -39.173637    -7.889765    2.711736    -15.736116    -0.772461    12.735164    18.492004    6.258016    8.992730    -2.795973    -6.462577    3.924513    6.600680    -5.853947    8.936030    -3.936200    5.327174    1.480903    -1.962494    -7.952804    -1.656618    5.273148    0.401681    -2.093246    -0.957986    -2.198770    1.359216    -9.293091    2.087891    4.854915    8.430655    -11.059272    4.883561    -2.148521    2.204722    -8.181236    0.660071    0.541503    -1.176838    
5.505348    82.312332    -73.489693    4.039833    3.924288    -3.239395    -3.972155    -14.034170    -0.070749    1.139347    2.673794    0.391913    -0.417685    31.892788    -1.796513    4.342839    -16.769444    -0.698281    18.069595    0.902924    6.501034    -33.445099    9.836845    -10.304336    7.629039    -7.764198    -12.814971    -39.128853    -7.875971    2.731246    -15.729854    -0.762417    12.733232    18.493702    6.245967    9.000156    -2.824214    -6.444112    3.938756    6.661018    -5.827463    8.969970    -3.946154    5.330019    1.495468    -1.937683    -7.976863    -1.732384    5.236116    0.436669    -2.072312    -0.958745    -2.274342    1.360934    -9.300651    2.086471    4.856154    8.438924    -11.062673    4.870806    -2.145356    2.225377    -8.157915    0.650033    0.531487    -1.159066    
5.506693    82.312485    -73.495087    4.042579    3.927397    -3.241201    -3.987033    -14.026258    -0.069271    1.159443    2.659343    0.394640    -0.454874    31.867104    -1.797475    4.397428    -16.740425    -0.690481    18.063608    0.913753    6.502777    -33.427193    9.891527    -10.324663    7.653709    -7.847138    -12.781292    -39.155483    -7.924584    2.633299    -15.740285    -0.762523    12.731932    18.493410    6.273206    9.005438    -2.814321    -6.462189    3.945935    6.587867    -5.851893    8.962201    -3.939972    5.312994    1.453475    -1.951389    -7.952579    -1.709302    5.302057    0.401245    -2.065246    -0.965176    -2.227742    1.369664    -9.301727    2.076451    4.860271    8.427760    -11.057375    4.894843    -2.144080    2.209150    -8.207427    0.649549    0.542816    -1.158064    
5.509956    82.311928    -73.499168    4.045391    3.924930    -3.237945    -3.995792    -14.015798    -0.066859    1.169092    2.651191    0.397552    -0.443289    31.845701    -1.814143    4.381650    -16.720507    -0.711152    18.067757    0.911545    6.490767    -33.448818    9.839188    -10.309837    7.665025    -7.798512    -12.816073    -39.170441    -7.883490    2.663786    -15.736505    -0.757312    12.732411    18.406235    6.536332    9.089078    -2.766121    -6.580990    3.757209    6.529600    -5.975392    9.070729    -3.961599    5.318878    1.503381    -1.940011    -7.959447    -1.634508    5.272313    0.418192    -2.133394    -0.931248    -2.253627    1.321733    -9.304678    2.076634    4.845353    8.429236    -11.054562    4.880583    -2.148352    2.204170    -8.178882    0.644889    0.540324    -1.149786    
5.511864    82.312355    -73.503807    4.044419    3.927982    -3.237419    -4.000938    -14.003565    -0.064989    1.178282    2.628400    0.399621    -0.439873    31.847973    -1.815759    4.373959    -16.734087    -0.713961    18.069126    0.916035    6.493719    -33.439838    9.873705    -10.312156    7.655567    -7.805078    -12.837168    -39.162384    -7.888412    2.660754    -15.738578    -0.751420    12.737800    18.391134    6.583864    9.092475    -2.757525    -6.593177    3.743845    6.503786    -5.989569    9.082663    -3.949655    5.308398    1.473425    -1.927811    -7.971498    -1.789656    5.204265    0.446998    -2.055224    -1.017326    -2.293787    1.444260    -9.305946    2.069964    4.855818    8.429336    -11.055779    4.890479    -2.139123    2.219357    -8.187181    0.664589    0.531164    -1.185023    
5.515117    82.312935    -73.506889    4.045702    3.926255    -3.234238    -4.009809    -13.994612    -0.064389    1.192550    2.619197    0.400701    -0.441333    31.855160    -1.830649    4.359068    -16.758821    -0.733053    18.066721    0.910982    6.488990    -33.440369    9.884179    -10.304907    7.676950    -7.886065    -12.835220    -39.189762    -7.943755    2.592488    -15.738843    -0.752732    12.745172    18.385162    6.610434    9.086475    -2.782971    -6.598036    3.737508    6.522982    -5.992688    9.074650    -3.951988    5.307539    1.464043    -1.924655    -7.971913    -1.809665    5.212031    0.450202    -2.040537    -1.001091    -2.303881    1.421303    -9.309995    2.073452    4.867671    8.421465    -11.064034    4.888092    -2.134075    2.223797    -8.205396    0.672777    0.542088    -1.199483    
